<?xml version="1.0" encoding="utf-8"?>
<!-- Generator: Adobe Illustrator 23.0.1, SVG Export Plug-In . SVG Version: 6.00 Build 0)  -->
<svg version="1.1" id="Layer_1" xmlns="http://www.w3.org/2000/svg" xmlns:xlink="http://www.w3.org/1999/xlink" x="0px" y="0px"
	 viewBox="0 0 196 768" style="enable-background:new 0 0 196 768;" xml:space="preserve">
<style type="text/css">
	.st0{display:none;fill:#F9F7F7;}
	.st1{display:none;}
	.st2{display:inline;fill:#F7D2DF;}
	.st3{display:inline;}
	.st4{fill:#FFFFFF;}
	.st5{display:inline;fill:#FFFFFF;}
	.st6{display:none;fill:#FFFFFF;stroke:#E3A3C1;stroke-miterlimit:10;}
	.st7{display:none;fill:#E2A3C9;stroke:#FFFFFF;stroke-miterlimit:10;}
	.st8{display:none;fill:#FFFFFF;}
	.st9{fill:#9E9D9D;}
	.st10{display:none;fill:#9E9D9D;}
	.st11{display:inline;fill:#9E9D9D;}
	.st12{display:none;fill:none;}
</style>
<rect x="-1170" y="-1" class="st0" width="1366" height="768"/>
<g class="st1">
	<rect x="-950" y="-1" class="st2" width="950" height="768"/>
</g>
<g class="st1">
	<g class="st3">
		<path class="st4" d="M-517.046,201.902h17.698V91.922h-9.328c-2.147,0-4.559,0.188-7.237,0.563
			c-2.682,0.377-5.388,1.422-8.122,3.136c-2.734,1.716-5.363,4.423-7.88,8.122c-2.521,3.699-4.692,8.82-6.514,15.358h-2.004V89.394
			h97.97v29.707h-1.779c-1.835-6.538-4.019-11.659-6.552-15.358c-2.534-3.699-5.176-6.406-7.925-8.122
			c-2.75-1.714-5.474-2.759-8.169-3.136c-2.696-0.374-5.122-0.563-7.278-0.563h-9.381v109.98h17.698v2.528h-51.197V201.902z"/>
	</g>
	<polygon class="st5" points="-369.143,91.922 -369.143,89.394 -404.602,89.394 -434.246,175.874 -434.246,175.987 
		-441.742,204.097 -441.664,204.322 -402.965,92.554 -402.642,92.554 -402.642,201.902 -420.34,201.902 -420.34,204.43 
		-369.143,204.43 -369.143,201.902 -386.841,201.902 -386.841,91.922 	"/>
	<path class="st5" d="M-503.459,133.052c7.346,5.212,14.618,10.334,21.818,15.372c7.2,5.036,13.646,10.37,19.342,16.009
		c5.694,5.634,10.298,11.699,13.814,18.196c3.513,6.493,5.279,13.844,5.296,22.054l1.689,0.317
		c1.047-10.399,0.622-20.09-1.275-29.069c-1.9-8.982-4.93-17.61-9.091-25.889c-4.163-8.282-9.273-16.386-15.326-24.313
		c-6.056-7.931-12.657-16.027-19.8-24.285c-6.192-7.045-12.167-13.825-17.925-20.34c-5.758-6.515-10.719-12.823-14.884-18.918
		c-4.166-6.1-7.212-11.955-9.143-17.57c-1.931-5.617-2.083-11.087-0.462-16.415c0.369-1.212,0.996-2.41,1.887-3.594
		c0.889-1.187,1.718-1.729,2.48-1.627c-0.054,1.04,0.401,1.939,1.362,2.697c0.962,0.755,1.924,1.28,2.895,1.575
		c1.572,0.478,3.114,0.418,4.619-0.182c1.505-0.602,2.499-1.688,2.978-3.262c0.553-1.816,0.406-3.517-0.435-5.094
		c-0.842-1.579-2.172-2.645-3.989-3.198c-1.937-0.59-3.632-0.677-5.081-0.257c-1.452,0.418-2.733,1.154-3.846,2.204
		c-1.115,1.049-2.02,2.294-2.726,3.736c-0.701,1.438-1.292,2.945-1.772,4.52c-1.88,6.176-2.03,12.215-0.454,18.122
		c1.577,5.905,4.273,11.821,8.094,17.746c3.82,5.925,8.493,11.977,14.024,18.161c5.528,6.179,11.244,12.617,17.146,19.31
		c5.903,6.691,11.778,13.574,17.632,20.649c5.852,7.071,11.092,14.422,15.717,22.05c4.626,7.625,8.437,15.534,11.437,23.724
		c2.997,8.188,4.613,16.687,4.845,25.49l-0.474,0.253c-1.648-9.368-4.63-17.619-8.94-24.752
		c-4.313-7.136-9.438-13.558-15.374-19.266c-5.937-5.712-12.431-10.897-19.48-15.554c-7.05-4.662-14.17-9.31-21.36-13.943
		c-7.191-4.639-14.203-9.417-21.04-14.343c-6.837-4.927-12.942-10.522-18.311-16.785l-2.204,0.718l30.713,34.055
		C-513.981,125.372-508.783,129.274-503.459,133.052z"/>
</g>
<rect x="-729" y="284" class="st6" width="559" height="292"/>
<circle class="st7" cx="-751.493" cy="434.358" r="79.956"/>
<rect x="-815.938" y="419.066" style="fill:none;" width="151.611" height="37.575"/>
<text transform="matrix(1 0 0 1 -815.9386 441.4006)" class="st8" style="font-family:'MyriadPro-Regular'; font-size:31.4583px;">About Me </text>
<circle class="st8" cx="-515" cy="609" r="10"/>
<circle class="st9" cx="-488" cy="609" r="10"/>
<circle class="st10" cx="-461" cy="609" r="10"/>
<circle class="st10" cx="-434" cy="609" r="10"/>
<circle class="st10" cx="-407" cy="609" r="10"/>
<circle class="st10" cx="-380" cy="609" r="10"/>
<rect x="-80.667" y="710.333" style="fill:none;" width="58.667" height="28.667"/>
<text transform="matrix(1 0 0 1 -80.667 727.373)" class="st8" style="font-family:'MyriadPro-Regular'; font-size:24px;">Back</text>
<rect x="-607.5" y="379" style="fill:none;" width="398.5" height="99"/>
<text transform="matrix(1 0 0 1 -607.5 393.9102)" class="st1"><tspan x="0" y="0" class="st11" style="font-family:'MyriadPro-Regular'; font-size:21px;">My name is TARIRO means “HOPE”, I am from </tspan><tspan x="0" y="25.199" class="st11" style="font-family:'MyriadPro-Regular'; font-size:21px;">Zimbabwe, Africa.</tspan><tspan x="0" y="50.399" class="st11" style="font-family:'MyriadPro-Regular'; font-size:21px;">I speak two languages which are “SHONA” </tspan><tspan x="0" y="75.6" class="st11" style="font-family:'MyriadPro-Regular'; font-size:21px;">and “ENGLISH”</tspan></text>
<g class="st1">
	<path class="st11" d="M-950-1.707h-220v51.819c84.386,112.997,157.725,228.074,220,345.224V-1.707z"/>
	<path class="st11" d="M-1104.784,693.158c-21.14-20.925-42.881-41.606-65.216-62.047v136.682h135.662
		C-1056.638,742.447-1080.117,717.568-1104.784,693.158z"/>
	<path class="st11" d="M-950,474.68c-29.244-58.658-61.103-116.408-95.584-173.246c-38.946-64.237-80.425-127.33-124.416-189.283
		v305.537c82.865,82.838,156.202,174.067,220,273.68V474.68z"/>
</g>
<rect y="-1" class="st12" width="196" height="768"/>
<g>
	<polygon class="st9" points="101.554,1 0,1 0,297.268 	"/>
	<polygon class="st9" points="196,1 146.651,1 0,424.555 0,769 196,769 	"/>
</g>
</svg>
