<?xml version="1.0" encoding="utf-8"?>
<!-- Generator: Adobe Illustrator 23.0.1, SVG Export Plug-In . SVG Version: 6.00 Build 0)  -->
<svg version="1.1" id="Layer_1" xmlns="http://www.w3.org/2000/svg" xmlns:xlink="http://www.w3.org/1999/xlink" x="0px" y="0px"
	 viewBox="0 0 1000 800" style="enable-background:new 0 0 1000 800;" xml:space="preserve">
<style type="text/css">
	.st0{opacity:0.78;}
	.st1{clip-path:url(#SVGID_2_);}
	.st2{fill:#9E9D9D;}
	.st3{opacity:0.54;}
	.st4{clip-path:url(#SVGID_4_);}
	.st5{fill:#E2A3C9;}
	.st6{fill:#F7D2DF;}
</style>
<g>
	<g class="st0">
		<defs>
			<rect id="SVGID_1_" x="-2.57" y="-8.95" class="st0" width="1000.65" height="808.95"/>
		</defs>
		<clipPath id="SVGID_2_">
			<use xlink:href="#SVGID_1_"  style="overflow:visible;"/>
		</clipPath>
		<g class="st1">
			<g>
				<path class="st2" d="M-930.15,1402.99h322.05V-598.34h-169.74c-39.07,0-82.95,3.43-131.69,10.24
					c-48.81,6.86-98.04,25.88-147.79,57.07c-49.75,31.23-97.59,80.48-143.39,147.79c-45.88,67.31-85.39,160.5-118.54,279.48h-36.47
					v-540.59h1782.8v540.59h-32.37c-33.39-118.98-73.14-212.17-119.23-279.48c-46.12-67.31-94.18-116.57-144.22-147.79
					c-50.04-31.19-99.61-50.21-148.65-57.07c-49.07-6.81-93.21-10.24-132.45-10.24h-170.72v2001.33H1.51V1449h-931.66V1402.99z"/>
			</g>
			<polygon class="st2" points="1761.3,-598.34 1761.3,-644.35 1116.04,-644.35 576.6,929.35 576.6,931.41 440.19,1442.95 
				441.62,1447.03 1145.82,-586.84 1151.7,-586.84 1151.7,1402.99 829.65,1402.99 829.65,1449 1761.3,1449 1761.3,1402.99 
				1439.25,1402.99 1439.25,-598.34 			"/>
			<path class="st2" d="M-682.89,150.12c133.67,94.84,266.02,188.05,397.03,279.73c131.03,91.64,248.32,188.71,351.98,291.32
				c103.61,102.53,187.39,212.89,251.37,331.12c63.92,118.15,96.06,251.93,96.38,401.32l30.74,5.77
				c19.05-189.23,11.32-365.58-23.21-528.97c-34.57-163.44-89.72-320.45-165.43-471.1C180.2,308.6,87.22,161.12-22.94,16.88
				c-110.2-144.32-230.32-291.65-360.31-441.93c-112.68-128.2-221.41-251.58-326.18-370.14s-195.06-233.35-270.85-344.25
				c-75.8-111-131.25-217.55-166.37-319.72c-35.14-102.21-37.91-201.75-8.41-298.71c6.71-22.06,18.13-43.86,34.35-65.39
				c16.18-21.61,31.26-31.46,45.14-29.6c-0.98,18.93,7.3,35.28,24.78,49.07c17.51,13.73,35.02,23.29,52.68,28.67
				c28.6,8.7,56.66,7.61,84.06-3.31c27.38-10.96,45.48-30.72,54.19-59.35c10.05-33.04,7.39-64-7.92-92.7
				c-15.33-28.74-39.52-48.12-72.58-58.19c-35.26-10.73-66.09-12.32-92.46-4.67c-26.42,7.6-49.73,21-69.99,40.1
				c-20.29,19.1-36.75,41.75-49.61,67.99c-12.75,26.18-23.52,53.6-32.24,82.26c-34.2,112.39-36.94,222.28-8.25,329.77
				c28.7,107.46,77.77,215.11,147.3,322.94c69.52,107.83,154.55,217.96,255.2,330.47c100.59,112.44,204.61,229.6,312.02,351.38
				c107.42,121.75,214.32,247,320.85,375.76C-51.05,35.99,44.31,169.74,128.47,308.56c84.18,138.76,153.54,282.67,208.12,431.71
				c54.53,149,83.94,303.66,88.17,463.85l-8.63,4.61c-29.99-170.48-84.25-320.62-162.69-450.43
				C174.96,628.45,81.7,511.59-26.31,407.72c-108.04-103.94-226.22-198.3-354.48-283.03C-509.1,39.85-638.66-44.72-769.49-129.04
				c-130.85-84.41-258.46-171.37-382.87-261c-124.41-89.66-235.52-191.47-333.2-305.45l-40.11,13.07l558.9,619.7
				C-874.36,10.36-779.78,81.36-682.89,150.12z"/>
		</g>
	</g>
	<g class="st3">
		<defs>
			<rect id="SVGID_3_" x="15.33" y="-10" class="st3" width="1000.65" height="808.95"/>
		</defs>
		<clipPath id="SVGID_4_">
			<use xlink:href="#SVGID_3_"  style="overflow:visible;"/>
		</clipPath>
		<g class="st4">
			<g>
				<path class="st5" d="M-912.24,1401.94h322.05V-599.4h-169.74c-39.07,0-82.95,3.43-131.69,10.24
					c-48.81,6.86-98.04,25.88-147.79,57.07c-49.75,31.23-97.59,80.48-143.39,147.79c-45.88,67.31-85.39,160.5-118.54,279.48h-36.47
					V-645.4h1782.8v540.59h-32.37c-33.39-118.98-73.14-212.17-119.23-279.48c-46.12-67.31-94.18-116.57-144.22-147.79
					C99.13-563.27,49.56-582.3,0.52-589.16c-49.07-6.81-93.21-10.24-132.45-10.24h-170.72v2001.33H19.41v46.01h-931.66V1401.94z"/>
			</g>
			<polygon class="st5" points="1779.21,-599.4 1779.21,-645.4 1133.94,-645.4 594.51,928.3 594.51,930.36 458.1,1441.89 
				459.52,1445.98 1163.73,-587.89 1169.61,-587.89 1169.61,1401.94 847.55,1401.94 847.55,1447.95 1779.21,1447.95 
				1779.21,1401.94 1457.15,1401.94 1457.15,-599.4 			"/>
			<g>
				<path class="st6" d="M-664.99,149.07c133.67,94.84,266.02,188.05,397.03,279.73c131.03,91.64,248.32,188.71,351.98,291.32
					c103.61,102.53,187.39,212.89,251.37,331.12c63.92,118.15,96.06,251.93,96.38,401.32l30.74,5.77
					c19.05-189.23,11.32-365.58-23.21-528.97c-34.57-163.44-89.72-320.45-165.43-471.1C198.11,307.54,105.13,160.07-5.03,15.82
					c-110.2-144.32-230.32-291.65-360.31-441.93c-112.68-128.2-221.41-251.58-326.18-370.14s-195.06-233.35-270.85-344.25
					c-75.8-111-131.25-217.55-166.37-319.72c-35.14-102.21-37.91-201.75-8.41-298.71c6.71-22.06,18.13-43.86,34.35-65.39
					c16.18-21.61,31.26-31.46,45.14-29.6c-0.98,18.93,7.3,35.28,24.78,49.07c17.51,13.73,35.02,23.29,52.68,28.67
					c28.6,8.7,56.66,7.61,84.06-3.31c27.38-10.96,45.48-30.72,54.19-59.35c10.05-33.04,7.39-64-7.92-92.7
					c-15.33-28.74-39.52-48.12-72.58-58.19c-35.26-10.73-66.09-12.32-92.46-4.67c-26.42,7.6-49.73,21-69.99,40.1
					c-20.29,19.1-36.75,41.75-49.61,67.99c-12.75,26.18-23.52,53.6-32.24,82.26c-34.2,112.39-36.94,222.28-8.25,329.77
					c28.7,107.46,77.77,215.11,147.3,322.94c69.52,107.83,154.55,217.96,255.2,330.47c100.59,112.44,204.61,229.6,312.02,351.38
					c107.42,121.75,214.32,247,320.85,375.76C-33.14,34.93,62.22,168.69,146.38,307.51c84.18,138.76,153.54,282.67,208.12,431.71
					c54.53,149,83.94,303.66,88.17,463.85l-8.63,4.61c-29.99-170.48-84.25-320.62-162.69-450.43
					C192.87,627.4,99.61,510.54-8.41,406.66c-108.04-103.94-226.22-198.3-354.48-283.03C-491.19,38.8-620.75-45.78-751.58-130.09
					c-130.85-84.41-258.46-171.37-382.87-261c-124.41-89.66-235.52-191.47-333.2-305.45l-40.11,13.07l558.9,619.7
					C-856.46,9.3-761.87,80.31-664.99,149.07z"/>
			</g>
		</g>
	</g>
</g>
</svg>
