<?xml version="1.0" encoding="utf-8"?>
<!-- Generator: Adobe Illustrator 23.0.1, SVG Export Plug-In . SVG Version: 6.00 Build 0)  -->
<svg version="1.1" id="Layer_1" xmlns="http://www.w3.org/2000/svg" xmlns:xlink="http://www.w3.org/1999/xlink" x="0px" y="0px"
	width="300px" height="300px" viewBox="0 0 459 800" style="enable-background:new 0 0 459 800;" xml:space="preserve">
<style type="text/css">
	.st0{display:none;}
	.st1{display:inline;fill:#E2A3C9;}
	.st2{display:none;fill:#E2A3C9;}
	.st3{fill:#F7D2DF;}
</style>
<g class="st0">
	<path class="st1" d="M138.204,786.954h74.517V323.882h-39.274c-9.039,0-19.194,0.794-30.47,2.369
		c-11.293,1.587-22.684,5.989-34.196,13.205c-11.512,7.225-22.581,18.622-33.179,34.196c-10.615,15.574-19.758,37.138-27.428,64.667
		h-8.439V313.236h412.507v125.083h-7.489c-7.727-27.529-16.922-49.092-27.587-64.667c-10.67-15.574-21.792-26.971-33.37-34.196
		c-11.578-7.216-23.047-11.618-34.394-13.205c-11.353-1.576-21.566-2.369-30.646-2.369h-39.5v463.072h74.517v10.645H138.204V786.954
		z"/>
</g>
<polygon class="st2" points="760.957,323.882 760.957,313.236 611.654,313.236 486.839,677.363 486.839,677.839 455.276,796.199 
	455.605,797.143 618.545,326.543 619.906,326.543 619.906,786.954 545.388,786.954 545.388,797.599 760.957,797.599 
	760.957,786.954 686.439,786.954 686.439,323.882 "/>
<g>
	<path class="st3" d="M122.575,2c3.85,0,8.118,0.705,12.686,2.095c7.189,2.188,12.296,6.274,15.612,12.491
		c3.273,6.137,3.84,12.841,1.683,19.926c-1.844,6.06-5.563,10.135-11.366,12.458c-3.271,1.304-6.626,1.965-9.972,1.965
		c-2.675,0-5.419-0.422-8.155-1.255c-3.809-1.159-7.69-3.277-11.533-6.29c-3.54-2.791-5.168-5.957-4.976-9.68l0.095-1.84
		l-1.826-0.245c-0.342-0.046-0.69-0.069-1.037-0.069c-3.707,0-7.394,2.519-11.271,7.697c-3.863,5.131-6.643,10.431-8.263,15.752
		c-6.923,22.748-6.261,46.416,1.967,70.348c8.146,23.698,21.178,48.749,38.735,74.457c17.524,25.644,38.661,52.51,62.822,79.85
		c24.291,27.487,49.683,56.301,75.458,85.628c29.907,34.574,57.93,68.945,83.292,102.159
		c25.302,33.131,46.947,67.466,64.334,102.053c17.363,34.551,30.185,71.063,38.108,108.52c7.777,36.805,9.643,77.036,5.551,119.613
		l-3.345-0.628c-0.306-34.081-7.884-65.076-22.531-92.149c-14.825-27.396-34.512-53.331-58.514-77.084
		c-23.939-23.696-51.428-46.448-81.702-67.623c-30.873-21.602-61.778-43.376-91.855-64.716
		c-21.996-15.612-44.023-32.126-65.47-49.081L3.959,305.374l5.084-1.657c22.379,25.946,48.135,49.486,76.576,69.983
		c28.574,20.585,58.408,40.923,88.675,60.449c30.103,19.4,60.355,39.148,89.917,58.695c29.439,19.447,56.94,41.404,81.737,65.261
		c24.754,23.805,46.424,50.96,64.407,80.712c17.946,29.698,30.525,64.532,37.386,103.533l0.478,2.719l2.435-1.302l1.996-1.067
		l1.089-0.582l-0.033-1.234c-0.981-37.109-7.886-73.432-20.523-107.961c-12.62-34.461-28.878-68.187-48.323-100.239
		c-19.422-32.034-41.745-63.351-66.348-93.081c-24.694-29.846-49.686-59.114-74.281-86.991
		c-25.065-28.419-49.358-55.777-72.204-81.314c-23.102-25.827-42.904-51.47-58.858-76.216
		c-15.887-24.639-27.269-49.589-33.83-74.154c-6.51-24.388-5.873-49.691,1.891-75.204c1.971-6.476,4.442-12.78,7.343-18.735
		c2.868-5.851,6.587-10.95,11.055-15.156c4.444-4.191,9.616-7.155,15.378-8.813C117.343,2.343,119.889,2,122.575,2 M122.575,0
		c-2.885,0-5.594,0.366-8.125,1.1c-6.113,1.759-11.506,4.858-16.194,9.279c-4.694,4.419-8.504,9.661-11.479,15.731
		c-2.95,6.057-5.442,12.402-7.46,19.033c-7.914,26.006-8.548,51.431-1.91,76.302c6.64,24.864,17.994,49.771,34.082,74.722
		c16.085,24.949,35.761,50.431,59.048,76.466c23.275,26.016,47.342,53.125,72.195,81.304c24.855,28.172,49.591,57.152,74.24,86.943
		c24.64,29.774,46.705,60.723,66.178,92.843c19.477,32.106,35.526,65.404,48.155,99.89c12.618,34.475,19.422,70.261,20.402,107.326
		l-1.996,1.067c-6.94-39.446-19.495-74.186-37.644-104.221c-18.16-30.045-39.74-57.085-64.732-81.119
		c-24.998-24.05-52.342-45.883-82.021-65.489c-29.686-19.629-59.664-39.198-89.936-58.707
		c-30.276-19.532-59.802-39.652-88.59-60.391c-28.786-20.746-54.495-44.303-77.097-70.675l-9.28,3.023L129.73,447.815
		c21.382,16.908,43.268,33.337,65.685,49.248c30.929,21.945,61.551,43.512,91.866,64.724c30.317,21.205,57.456,43.664,81.441,67.406
		c23.973,23.724,43.36,49.259,58.162,76.615c14.79,27.337,22.228,58.292,22.299,92.859l7.113,1.334
		c4.408-43.785,2.618-84.588-5.37-122.394c-7.999-37.817-20.76-74.145-38.278-109.005c-17.529-34.87-39.043-68.994-64.532-102.369
		c-25.498-33.392-53.291-67.482-83.369-102.254c-26.072-29.663-51.23-58.212-75.472-85.644
		c-24.242-27.432-45.134-53.993-62.67-79.654c-17.54-25.683-30.368-50.337-38.495-73.978c-8.131-23.65-8.772-46.682-1.945-69.115
		c1.554-5.105,4.195-10.148,7.947-15.131c3.445-4.602,6.676-6.9,9.673-6.9c0.258,0,0.516,0.017,0.771,0.051
		c-0.226,4.381,1.688,8.164,5.735,11.354c4.05,3.177,8.103,5.39,12.189,6.633c2.938,0.894,5.851,1.342,8.737,1.342
		c3.615,0,7.188-0.702,10.713-2.107c6.335-2.536,10.523-7.109,12.539-13.734c2.326-7.645,1.71-14.808-1.832-21.449
		c-3.547-6.65-9.144-11.135-16.795-13.464C131.069,0.729,126.646,0,122.575,0L122.575,0z"/>
</g>
</svg>
