<svg id="Layer_1" data-name="Layer 1" xmlns="http://www.w3.org/2000/svg" viewBox="0 0 180.63 190"><defs><style>.cls-1{fill:#e3a4c9;}.cls-2{fill:#f7d3df;}</style></defs><title>logow</title><path class="cls-1" d="M45.86,200.52h17.7v-110H54.23A53.45,53.45,0,0,0,47,91.1a20.85,20.85,0,0,0-8.12,3.14A27.74,27.74,0,0,0,31,102.36q-3.78,5.55-6.52,15.36h-2V88h98v29.71h-1.78q-2.76-9.81-6.55-15.36a28.09,28.09,0,0,0-7.93-8.12A21.06,21.06,0,0,0,96,91.1a54,54,0,0,0-7.27-.56H79.36v110h17.7v2.53H45.86Z" transform="translate(-13.14 -13.62)"/><polygon class="cls-1" points="180.63 76.92 180.63 74.39 145.17 74.39 115.53 160.87 115.53 160.99 108.03 189.1 108.11 189.32 146.81 77.55 147.13 77.55 147.13 186.9 129.43 186.9 129.43 189.43 180.63 189.43 180.63 186.9 162.93 186.9 162.93 76.92 180.63 76.92"/><path class="cls-2" d="M59.45,131.67q11,7.82,21.82,15.37a147.63,147.63,0,0,1,19.34,16,77.54,77.54,0,0,1,13.82,18.2,45.84,45.84,0,0,1,5.29,22.05l1.69.32a94.56,94.56,0,0,0-1.27-29.07,106.2,106.2,0,0,0-9.1-25.89,154.42,154.42,0,0,0-15.32-24.31q-9.09-11.89-19.8-24.29Q66.64,89.5,58,79.72A194.85,194.85,0,0,1,43.11,60.81,74.35,74.35,0,0,1,34,43.24a26,26,0,0,1-.46-16.42,11.4,11.4,0,0,1,1.88-3.59c.89-1.19,1.72-1.73,2.48-1.63a3.14,3.14,0,0,0,1.37,2.7,8.87,8.87,0,0,0,2.89,1.57,6.79,6.79,0,0,0,4.62-.18,4.88,4.88,0,0,0,3-3.26,6.5,6.5,0,0,0-4.43-8.29,8.9,8.9,0,0,0-5.08-.26,9.26,9.26,0,0,0-3.84,2.2,12.84,12.84,0,0,0-2.73,3.74,31.18,31.18,0,0,0-1.77,4.52,32.36,32.36,0,0,0-.45,18.12,62.5,62.5,0,0,0,8.09,17.75,146.84,146.84,0,0,0,14,18.16q8.3,9.27,17.15,19.31t17.63,20.65a185.63,185.63,0,0,1,15.72,22,135.76,135.76,0,0,1,11.44,23.72,80,80,0,0,1,4.84,25.49l-.47.26a71.4,71.4,0,0,0-8.94-24.76,94.5,94.5,0,0,0-15.38-19.26,136.64,136.64,0,0,0-19.48-15.56q-10.58-7-21.36-13.94T33.65,102A104.56,104.56,0,0,1,15.34,85.2l-2.2.72L43.85,120Q51.47,126,59.45,131.67Z" transform="translate(-13.14 -13.62)"/></svg>