<?xml version="1.0" encoding="utf-8"?>
<!-- Generator: Adobe Illustrator 23.0.1, SVG Export Plug-In . SVG Version: 6.00 Build 0)  -->
<svg version="1.1" id="Layer_1" xmlns="http://www.w3.org/2000/svg" xmlns:xlink="http://www.w3.org/1999/xlink" x="0px" y="0px"
	 viewBox="0 0 1000 800" style="enable-background:new 0 0 1000 800;" xml:space="preserve">
<style type="text/css">
	.st0{fill:#E2A3C9;}
	.st1{display:none;}
	.st2{display:inline;fill:#F7D2DF;}
</style>
<g>
	<path class="st0" d="M250.2,786.95h74.52V323.88h-39.27c-9.04,0-19.19,0.79-30.47,2.37c-11.29,1.59-22.68,5.99-34.2,13.21
		c-11.51,7.23-22.58,18.62-33.18,34.2c-10.61,15.57-19.76,37.14-27.43,64.67h-8.44V313.24h412.51v125.08h-7.49
		c-7.73-27.53-16.92-49.09-27.59-64.67c-10.67-15.57-21.79-26.97-33.37-34.2c-11.58-7.22-23.05-11.62-34.39-13.21
		c-11.35-1.58-21.57-2.37-30.65-2.37h-39.5v463.07h74.52v10.65H250.2V786.95z"/>
</g>
<polygon class="st0" points="872.96,323.88 872.96,313.24 723.65,313.24 598.84,677.36 598.84,677.84 567.28,796.2 567.61,797.14 
	730.55,326.54 731.91,326.54 731.91,786.95 657.39,786.95 657.39,797.6 872.96,797.6 872.96,786.95 798.44,786.95 798.44,323.88 "/>
<g class="st1">
	<path class="st2" d="M307.41,497.06c30.93,21.94,61.55,43.51,91.87,64.72c30.32,21.2,57.46,43.66,81.44,67.41
		c23.97,23.72,43.36,49.26,58.16,76.61c14.79,27.34,22.23,58.29,22.3,92.86l7.11,1.33c4.41-43.78,2.62-84.59-5.37-122.39
		c-8-37.82-20.76-74.15-38.28-109c-17.53-34.87-39.04-68.99-64.53-102.37c-25.5-33.39-53.29-67.48-83.37-102.25
		c-26.07-29.66-51.23-58.21-75.47-85.64c-24.24-27.43-45.13-53.99-62.67-79.65c-17.54-25.68-30.37-50.34-38.49-73.98
		c-8.13-23.65-8.77-46.68-1.94-69.12c1.55-5.11,4.2-10.15,7.95-15.13c3.74-5,7.23-7.28,10.44-6.85c-0.23,4.38,1.69,8.16,5.73,11.35
		c4.05,3.18,8.1,5.39,12.19,6.63c6.62,2.01,13.11,1.76,19.45-0.77c6.34-2.54,10.52-7.11,12.54-13.73
		c2.33-7.64,1.71-14.81-1.83-21.45c-3.55-6.65-9.14-11.14-16.79-13.46c-8.16-2.48-15.29-2.85-21.39-1.08
		c-6.11,1.76-11.51,4.86-16.19,9.28c-4.69,4.42-8.5,9.66-11.48,15.73c-2.95,6.06-5.44,12.4-7.46,19.03
		c-7.91,26.01-8.55,51.43-1.91,76.3c6.64,24.86,17.99,49.77,34.08,74.72c16.08,24.95,35.76,50.43,59.05,76.47
		c23.27,26.02,47.34,53.13,72.19,81.3c24.85,28.17,49.59,57.15,74.24,86.94c24.64,29.77,46.7,60.72,66.18,92.84
		c19.48,32.11,35.53,65.4,48.16,99.89c12.62,34.48,19.42,70.26,20.4,107.33l-2,1.07c-6.94-39.45-19.49-74.19-37.64-104.22
		c-18.16-30.04-39.74-57.09-64.73-81.12c-25-24.05-52.34-45.88-82.02-65.49c-29.69-19.63-59.66-39.2-89.94-58.71
		c-30.28-19.53-59.8-39.65-88.59-60.39c-28.79-20.75-54.49-44.3-77.1-70.67l-9.28,3.02l129.32,143.39
		C263.11,464.72,285,481.15,307.41,497.06z"/>
</g>
</svg>
