<?xml version="1.0" encoding="utf-8"?>
<!-- Generator: Adobe Illustrator 23.0.1, SVG Export Plug-In . SVG Version: 6.00 Build 0)  -->
<svg version="1.1" id="Layer_1" xmlns="http://www.w3.org/2000/svg" xmlns:xlink="http://www.w3.org/1999/xlink" x="0px" y="0px"
	 viewBox="0 0 1224 792" style="enable-background:new 0 0 1224 792;" xml:space="preserve">
<style type="text/css">
	.st0{fill:none;stroke:#000000;stroke-miterlimit:10;}
	.st1{fill:none;}
	.st2{font-family:'Avenir-Roman';}
	.st3{font-size:9px;}
</style>
<g>
	<rect x="244.682" y="35.114" class="st0" width="720" height="720"/>
	<g>
		<path d="M356.94,65.035c-0.064,0.064-0.095,0.254-0.095,0.57v0.475c-0.064,0.19-0.095,0.349-0.095,0.476
			c-0.444,2.533-1.837,5.004-4.18,7.41c-2.154,2.153-4.56,3.389-7.22,3.704h-0.57c-0.064,0.064-0.254,0.096-0.57,0.096h-0.57
			c-0.064,0.063-0.254,0.095-0.57,0.095c-0.508,0.128-0.888,0.19-1.14,0.19h-1.425c-0.064,0-0.159-0.031-0.285-0.096h-0.76
			c-0.064,0-0.128-0.031-0.19-0.095h-0.19v41.04l0.38,0.19c2.152,0.253,4.432-0.554,6.84-2.423c2.406-1.867,4.306-3.72,5.7-5.558
			l1.995-2.565c0.76-1.012,1.33-1.805,1.71-2.375l0.855-0.189v1.33c0,5.384-2.945,10.419-8.835,15.104
			c-0.38,0.318-0.982,0.793-1.805,1.426c-1.838,1.457-3.895,2.502-6.175,3.135c-0.317,0.062-1.9,0.442-4.75,1.14
			c-2.85,0.316-4.688,0.476-5.51,0.476c-7.158,0-13.649-2.122-19.475-6.365c-6.08-4.37-9.628-10.102-10.64-17.195v-0.285
			c-0.064-0.062-0.095-0.189-0.095-0.38v-0.38c-0.064-0.062-0.095-0.19-0.095-0.38v-0.285h-0.095v-0.38
			c-0.064-0.062-0.095-0.157-0.095-0.285v-1.71c0-0.19,0.031-0.395,0.095-0.617c0.062-0.222,0.126-0.364,0.19-0.428v-0.57
			c0-0.062,0.031-0.143,0.095-0.237c0.062-0.095,0.095-0.221,0.095-0.38c0-0.157,0.062-0.49,0.19-0.997
			c0-0.253,0.062-0.633,0.19-1.141c2.406-9.752,7.821-17.226,16.245-22.42c-0.128,0-0.285-0.031-0.475-0.095h-0.57
			c-0.128,0-0.285-0.031-0.475-0.095H314c-0.38,0-0.603-0.031-0.665-0.096h-0.76c-0.254,0-0.475-0.031-0.665-0.095h-0.57
			c-6.84,0-12.065,2.755-15.675,8.265l-0.76-0.38c0.19,0.064,0.252,0.095,0.19,0.095L295,81.66V81.47l-0.095-0.096V81.28
			c0-4.56,1.805-8.327,5.415-11.305c3.862-3.166,7.916-5.161,12.16-5.985c0.252-0.062,1.14-0.189,2.66-0.38
			c0.19,0,0.442-0.031,0.76-0.095c0.316,0,0.537,0,0.665,0c0.252-0.062,0.696-0.096,1.33-0.096h1.14
			c0.062,0.064,0.221,0.096,0.475,0.096h0.76c0.19,0.063,0.348,0.095,0.475,0.095h0.855l24.89,4.085
			c0.126,0.128,0.205,0.206,0.237,0.237c0.031,0.033,0.11,0.048,0.238,0.048h0.665c0,0.063,0.062,0.095,0.19,0.095h1.52
			c0.19,0,0.395-0.031,0.617-0.095c0.221-0.062,0.411-0.11,0.57-0.143c0.157-0.031,0.427-0.11,0.808-0.237l0.855-0.285
			c0.19-0.126,0.458-0.3,0.807-0.522c0.348-0.222,0.585-0.395,0.713-0.522c0.126-0.126,0.252-0.269,0.38-0.428
			c0.126-0.157,0.285-0.395,0.475-0.713c0.19-0.315,0.333-0.553,0.427-0.712c0.095-0.157,0.269-0.428,0.522-0.808h0.19l0.095-0.095
			V63.42h0.19l0.095-0.095h0.19c0.062,0,0.126-0.031,0.19-0.095h0.19c0.062,0,0.126-0.031,0.19-0.095h0.095V65.035z M318.465,74.535
			c-1.268,0.76-2.185,1.584-2.755,2.47c-1.268,1.838-2.344,3.77-3.23,5.796c-0.063,0.127-0.349,0.792-0.855,1.994
			c-0.38,0.95-0.792,2.091-1.235,3.421c-0.127,0.823-0.38,2.027-0.76,3.609c-0.064,0.508-0.159,1.268-0.285,2.28
			c-0.064,0.508-0.095,1.268-0.095,2.28c0,1.899,0.252,3.863,0.76,5.89c0.886,2.534,1.677,4.434,2.375,5.7
			c0.062,0.189,0.11,0.317,0.143,0.38c0.031,0.063,0.11,0.159,0.237,0.285l0.285,0.285c0,0.063,0.062,0.175,0.19,0.332
			c0.126,0.159,0.601,0.84,1.425,2.043c0.442,0.38,1.013,0.982,1.71,1.805c0.126,0.063,0.252,0.206,0.38,0.428
			c0.126,0.223,0.205,0.365,0.237,0.427c0.031,0.064,0.11,0.096,0.237,0.096c0.062,0,0.158-0.062,0.285-0.19l0.38-0.38
			c0.062-0.062,0.143-0.126,0.238-0.19c0.095-0.062,0.157-0.126,0.19-0.189c0.031-0.062,0.11-0.157,0.237-0.285l0.38-0.38
			c0.062-0.126,0.157-0.252,0.285-0.38c0,0.508,0.285-0.38,0.855-2.66l0.285-1.14c0.19-0.507,0.285-1.33,0.285-2.471V75.675h-0.095
			V75.58c-0.064,0-0.095-0.031-0.095-0.095V75.39h-0.095V75.2c-0.127,0-0.19-0.062-0.19-0.189v-0.285L318.465,74.535z
			 M331.005,76.91v22.42c0,3.294-1.078,6.303-3.23,9.025c-2.154,2.724-4.465,4.939-6.935,6.649c-0.128,0.128-0.254,0.19-0.38,0.19
			c-0.19,0.19-0.413,0.349-0.665,0.475c-0.19,0.128-0.318,0.223-0.38,0.285c2.026,1.647,4.211,2.851,6.555,3.61
			c2.342,0.76,4.75,1.14,7.22,1.14h0.855c0.19,0,0.537-0.062,1.045-0.189c0.062,0,0.221-0.031,0.475-0.096h0.475
			c0.062,0,0.221-0.03,0.475-0.095h0.38V77.67L331.005,76.91z"/>
		<path d="M412.472,198.626c0,10.165,0.57,11.686,5.7,12.065l3.61,0.285c0.57,0.569,0.38,2.09-0.19,2.375
			c-5.89-0.19-9.12-0.285-12.92-0.285c-3.99,0-7.41,0.095-12.445,0.285c-0.57-0.285-0.76-1.806-0.19-2.375l2.945-0.285
			c5.51-0.57,5.7-1.9,5.7-12.065v-4.845c0-5.226-0.285-6.46-3.04-11.78l-11.21-21.851c-3.23-6.27-4.655-6.745-7.505-7.22
			l-2.66-0.476c-0.57-0.665-0.475-1.995,0.19-2.375c3.04,0.19,6.46,0.285,11.021,0.285c4.37,0,7.79-0.095,10.165-0.285
			c0.855,0.285,0.855,1.806,0.285,2.375l-1.235,0.19c-3.325,0.475-3.99,0.95-3.99,1.71c0,0.95,2.47,6.365,2.945,7.315
			c3.515,7.029,7.03,14.535,10.735,21.09c2.945-5.035,6.08-10.545,8.93-16.056c2.66-4.939,6.175-11.399,6.175-12.54
			c0-0.569-1.71-1.234-3.99-1.52l-1.71-0.19c-0.665-0.665-0.57-1.995,0.19-2.375c3.42,0.19,6.175,0.285,9.12,0.285
			c2.945,0,5.605-0.095,8.835-0.285c0.76,0.476,0.855,1.806,0.19,2.375l-2.66,0.476c-4.94,0.854-7.79,6.84-12.54,15.01
			l-5.985,10.355c-4.18,7.22-4.465,8.075-4.465,15.39V198.626z"/>
		<path d="M483.379,212.396h24.771c6.494,0,11.349,1.399,14.565,4.198c3.216,2.799,4.824,6.208,4.824,10.228
			c0,3.186-1.021,6.278-3.062,9.277c-2.041,3-5.072,5.436-9.092,7.307c-4.021,1.871-8.366,2.806-13.035,2.806
			c-2.907,0-6.603-0.525-11.086-1.577l-5.01,17.163c-1.176,4.082-1.763,6.772-1.763,8.071c0,0.99,0.417,1.81,1.252,2.459
			s2.83,1.066,5.984,1.252l-0.464,1.717h-25.002l0.51-1.717c3.277,0,5.559-0.563,6.842-1.692s2.667-4.245,4.152-9.348l10.391-35.811
			c1.236-4.298,1.855-7.174,1.855-8.628c0-1.082-0.441-1.979-1.322-2.69c-0.882-0.711-2.823-1.144-5.822-1.299L483.379,212.396z
			 M492.053,241.712c3.494,0.897,6.309,1.345,8.442,1.345c3.37,0,6.44-0.695,9.208-2.087s4.933-3.479,6.494-6.263
			s2.343-5.674,2.343-8.674c0-3.123-0.959-5.597-2.876-7.422c-1.918-1.824-4.824-2.737-8.721-2.737
			c-2.104,0-4.655,0.264-7.654,0.789L492.053,241.712z"/>
		<path d="M597.364,344.254c-0.95,1.014-2.042,1.933-3.278,2.755c-1.235,0.824-2.517,1.521-3.847,2.09
			c-1.33,0.57-2.66,1.015-3.99,1.33c-1.33,0.318-2.598,0.476-3.8,0.476c-2.028,0-3.769-0.19-5.225-0.57
			c-1.458-0.38-2.819-0.822-4.085-1.33c-1.52,2.218-3.437,4.561-5.748,7.03c-2.312,2.47-4.83,4.735-7.553,6.792
			c-2.724,2.06-5.574,3.77-8.55,5.13c-2.978,1.361-5.89,2.043-8.74,2.043c-5.004,0-8.756-1.439-11.258-4.322
			c-2.502-2.882-3.752-6.76-3.752-11.638c0-3.926,0.649-7.805,1.948-11.638c1.297-3.831,3.023-7.505,5.177-11.02
			c2.152-3.516,4.607-6.793,7.362-9.833c2.755-3.04,5.589-5.731,8.503-8.075c2.912-2.342,5.778-4.258,8.597-5.747
			c2.817-1.487,5.368-2.423,7.647-2.803c0.95-0.886,2.138-1.662,3.562-2.327c1.425-0.665,2.96-0.998,4.608-0.998
			c3.862,0,6.681,1.235,8.455,3.705c1.772,2.471,2.66,6.113,2.66,10.926c0,2.533-0.38,5.241-1.14,8.122
			c-0.76,2.883-1.726,5.747-2.897,8.598c-1.172,2.85-2.486,5.573-3.942,8.17c-1.458,2.598-2.914,4.909-4.37,6.935
			c1.266,0.57,2.613,0.998,4.038,1.283c1.425,0.284,3.024,0.427,4.797,0.427c2.533,0,5.035-0.569,7.505-1.71
			c2.47-1.14,4.717-2.627,6.745-4.465L597.364,344.254z M533.619,355.37c0,1.52,0.205,3.057,0.618,4.607
			c0.411,1.553,1.045,2.961,1.9,4.228c0.855,1.268,1.931,2.296,3.23,3.088c1.297,0.792,2.802,1.188,4.512,1.188
			c2.343,0,4.845-0.681,7.505-2.043c2.66-1.361,5.24-3.071,7.742-5.13c2.501-2.058,4.798-4.29,6.888-6.697
			c2.09-2.406,3.736-4.655,4.94-6.745c-4.18-2.471-7.348-5.62-9.5-9.453c-2.154-3.831-3.23-8.09-3.23-12.777
			c0-1.393,0.126-2.897,0.38-4.513c0.252-1.614,0.665-3.244,1.235-4.892c0.57-1.646,1.297-3.31,2.185-4.988
			c0.886-1.677,1.995-3.244,3.325-4.702l-0.19-0.19c-3.99,1.204-7.87,3.468-11.638,6.793c-3.769,3.325-7.125,7.268-10.07,11.827
			c-2.945,4.561-5.32,9.485-7.125,14.772C534.521,345.031,533.619,350.24,533.619,355.37z M576.749,313.855
			c0-1.076-0.095-2.091-0.285-3.04c-0.19-0.95-0.539-1.789-1.045-2.518c-0.507-0.728-1.251-1.314-2.232-1.758
			c-0.982-0.442-2.232-0.665-3.752-0.665c-0.318,0-0.698,0-1.14,0c-0.38,0-0.76,0.063-1.14,0.19
			c-0.888,0.949-1.774,2.105-2.66,3.467c-0.888,1.363-1.679,2.866-2.375,4.513c-0.698,1.647-1.268,3.389-1.71,5.225
			c-0.444,1.838-0.665,3.705-0.665,5.605c0,9.817,3.926,17.164,11.78,22.04c3.04-4.876,5.463-10.133,7.268-15.771
			c1.805-5.636,2.708-11.336,2.708-17.1c0-1.202-0.064-2.47-0.19-3.8c-0.127-1.33-0.413-2.549-0.855-3.657
			c-0.444-1.107-1.125-2.026-2.042-2.756c-0.919-0.727-2.17-1.092-3.752-1.092c-1.14,0-2.265,0.175-3.373,0.522
			c-1.109,0.349-2.011,0.776-2.708,1.282l0.19,0.19h1.33c1.583,0,2.881,0.254,3.895,0.76c1.012,0.508,1.805,1.188,2.375,2.042
			c0.57,0.855,0.965,1.838,1.188,2.945c0.221,1.109,0.333,2.232,0.333,3.373H576.749z"/>
		<path d="M620.809,430.059h27.136v2.227c-3,0-5.033,0.302-6.1,0.905c-1.067,0.603-1.771,1.607-2.111,3.015
			c-0.341,1.407-0.51,4.817-0.51,10.229v6.68c-0.742-0.123-1.408-0.186-1.995-0.186c-2.382,0-5.505,0.727-9.37,2.18
			c-5.258,1.979-10.128,2.969-14.612,2.969c-8.999,0-16.483-2.961-22.451-8.883c-5.969-5.922-8.953-13.429-8.953-22.521
			c0-8.999,2.845-16.885,8.535-23.657c5.689-6.772,13.421-10.159,23.193-10.159c8.411,0,15.369,3.093,20.874,9.277
			c1.021-2.164,1.67-4.499,1.948-7.004h2.227v21.013h-2.227c-0.897-6.463-3.348-11.58-7.352-15.354
			c-4.005-3.772-8.868-5.659-14.589-5.659c-5.907,0-11.056,2.196-15.447,6.587c-4.392,4.392-6.587,12.185-6.587,23.379
			c0,11.164,2.118,19.072,6.355,23.727c4.236,4.654,9.493,6.981,15.771,6.981c3.216,0,6.138-0.657,8.767-1.972
			c2.628-1.314,4.422-2.914,5.381-4.801c0.958-1.886,1.438-4.268,1.438-7.144c0-3.37-0.225-5.62-0.673-6.749
			s-1.136-1.887-2.064-2.273s-2.629-0.58-5.103-0.58h-1.484V430.059z"/>
		<path d="M777.293,451.964c0,2.66-2.218,3.99-6.65,3.99c-4.94,0-8.804-2.058-11.59-6.175c-1.204-1.772-1.98-3.482-2.328-5.13
			c-0.349-1.646-0.871-5.826-1.567-12.54c-0.38-4.053-1.679-6.919-3.895-8.598c-2.218-1.678-5.828-2.58-10.83-2.707v29.925
			c0,1.268,1.013,2.059,3.04,2.375c0.57,0.063,2.026,0.127,4.37,0.189c0.822,0,1.235,0.254,1.235,0.761
			c0,0.569-0.539,0.854-1.615,0.854h-1.14c-0.57,0-3.325,0-8.265,0c-0.95,0-2.565,0-4.845,0c-2.218,0-3.674,0-4.37,0h-3.705
			c-1.394,0-2.09-0.285-2.09-0.854c0-0.442,0.917-0.696,2.755-0.761c2.976-0.062,4.591-0.442,4.845-1.14
			c0.252-0.316,0.38-1.551,0.38-3.705v-52.44c0-2.532-0.27-4.052-0.808-4.56c-0.539-0.506-2.17-0.791-4.893-0.855
			c-1.583,0-2.375-0.284-2.375-0.854c0-0.633,0.506-0.95,1.52-0.95c0.19,0,0.475,0.033,0.855,0.095l12.635,0.285
			c1.266,0,3.04-0.041,5.32-0.126c2.532-0.169,4.306-0.254,5.32-0.254c5.89,0,10.56,1.315,14.012,3.942
			c3.451,2.629,5.178,6.191,5.178,10.688c0,4.435-1.774,8.092-5.32,10.973c-3.547,2.883-8.36,4.576-14.44,5.083
			c-0.57,0.063-0.888,0.158-0.95,0.286c0,0.254,0.316,0.38,0.95,0.38c6.65,1.143,11.225,3.478,13.728,7.002
			c2.501,3.525,4.164,9.892,4.987,19.101c0.506,5.207,2.28,7.812,5.32,7.812c0.95,0,1.425-0.19,1.425-0.57
			c0-0.062-0.033-0.126-0.095-0.19c-0.318-0.696-0.475-1.266-0.475-1.71c0-1.33,0.696-1.995,2.09-1.995
			C776.533,449.589,777.293,450.382,777.293,451.964z M757.628,404.37c0-9.056-3.928-13.585-11.78-13.585
			c-2.09,0-3.515,0.285-4.275,0.855c-0.76,0.569-1.14,1.583-1.14,3.04v24.13c6.08,0.063,10.465-1.045,13.158-3.325
			C756.281,413.204,757.628,409.499,757.628,404.37z"/>
		<path d="M877.893,394.394l18.926,52.742h7.793v8.721h-27.554v-8.721h9.138l-5.427-15.864h-25.374l-5.427,15.864h8.86v8.721
			h-27.739v-8.721h8.442l18.833-52.742h-8.396v-8.442h36.321v8.442H877.893z M868.337,394.394h-0.325l-9.88,28.667h19.854
			L868.337,394.394z"/>
		<path d="M824.286,506.743h30.662c6.061,0,10.583,1.709,13.568,5.126c2.984,3.417,3.811,8.219,2.481,14.403
			c-1.113,5.319-3.75,9.95-7.909,13.893c-4.159,3.943-9.671,5.914-16.537,5.914h-21.431l-6.077,28.807h-9.231L824.286,506.743z
			 M858.287,516.157c-1.855-0.957-4.562-1.436-8.118-1.436h-18.369l-5.01,23.564h18.369c4.144,0,7.692-0.879,10.646-2.639
			c2.953-1.759,4.909-4.861,5.868-9.306C862.724,521.341,861.596,517.947,858.287,516.157z"/>
		<path d="M759.035,656.252v-30.971h-27.075v30.971h-7.41v-65.551h7.41v28.405h27.075v-28.405h7.41v65.551H759.035z"/>
		<path d="M663.776,704.107v29.261h-7.79v-28.69l-20.9-34.011h8.36l16.815,26.886l17.29-26.886h8.265L663.776,704.107z"/>
		<rect x="362.539" y="64.41" class="st1" width="165" height="25"/>
		<text transform="matrix(1 0 0 1 362.5388 71.214)"><tspan x="0" y="0" class="st2 st3">Blackletter</tspan><tspan x="0" y="14" class="st2 st3">1450</tspan></text>
		<rect x="445.039" y="147.41" class="st1" width="165" height="25"/>
		<text transform="matrix(1 0 0 1 445.0388 154.214)"><tspan x="0" y="0" class="st2 st3">Oldstyle</tspan><tspan x="0" y="14" class="st2 st3">1475</tspan></text>
		<rect x="538.039" y="212.396" class="st1" width="165" height="25"/>
		<text transform="matrix(1 0 0 1 538.0388 219.2001)"><tspan x="0" y="0" class="st2 st3">Italic</tspan><tspan x="0" y="14" class="st2 st3">1500</tspan></text>
		<rect x="597.364" y="302.74" class="st1" width="165" height="25"/>
		<text transform="matrix(1 0 0 1 597.3641 309.5438)"><tspan x="0" y="0" class="st2 st3">Script</tspan><tspan x="0" y="14" class="st2 st3">1550</tspan></text>
		<rect x="828.791" y="571.463" class="st1" width="75.821" height="25"/>
		<text transform="matrix(1 0 0 1 828.7908 578.2675)"><tspan x="0" y="0" class="st2 st3">Sans Serif</tspan><tspan x="0" y="14" class="st2 st3">1900</tspan></text>
		<rect x="775.632" y="643.752" class="st1" width="64.496" height="25"/>
		<text transform="matrix(1 0 0 1 775.6323 650.5566)"><tspan x="0" y="0" class="st2 st3">Semi Sans</tspan><tspan x="0" y="14" class="st2 st3">1990</tspan></text>
		<rect x="675.128" y="720.868" class="st1" width="65.305" height="25"/>
		<text transform="matrix(1 0 0 1 675.1279 727.6719)"><tspan x="0" y="0" class="st2 st3">Sans / Serif</tspan><tspan x="0" y="14" class="st2 st3">1990</tspan></text>
		<rect x="645.127" y="394.083" class="st1" width="30.649" height="162.434"/>
		<text transform="matrix(0 1 -1 0 668.9717 394.0836)"><tspan x="0" y="0" class="st2 st3">Transitional</tspan><tspan x="0" y="14" class="st2 st3">1750</tspan></text>
		<rect x="770.293" y="388.789" class="st1" width="30.649" height="78.379"/>
		<text transform="matrix(0 1 -1 0 794.1377 388.7893)"><tspan x="0" y="0" class="st2 st3">Modern</tspan><tspan x="0" y="14" class="st2 st3">1775</tspan></text>
		<rect x="898.612" y="385.951" class="st1" width="30.649" height="92.734"/>
		<text transform="matrix(0 1 -1 0 922.4561 385.9518)"><tspan x="0" y="0" class="st2 st3">Square Serif</tspan><tspan x="0" y="14" class="st2 st3">1825</tspan></text>
	</g>
</g>
</svg>
