<?xml version="1.0" encoding="utf-8"?>
<!-- Generator: Adobe Illustrator 23.0.1, SVG Export Plug-In . SVG Version: 6.00 Build 0)  -->
<svg version="1.1" id="Layer_1" xmlns="http://www.w3.org/2000/svg" xmlns:xlink="http://www.w3.org/1999/xlink" x="0px" y="0px"
	 viewBox="0 0 281 301" style="enable-background:new 0 0 281 301;" xml:space="preserve">
<style type="text/css">
	.st0{fill:#FFFFFF;}
</style>
<g>
	<g>
		<path class="st0" d="M51.097,294.184h27.51V123.23H64.108c-3.337,0-7.086,0.293-11.249,0.875
			c-4.169,0.586-8.374,2.211-12.624,4.875c-4.25,2.667-8.336,6.875-12.249,12.624c-3.919,5.75-7.294,13.71-10.126,23.873h-3.116
			V119.3h152.286v46.177h-2.765c-2.852-10.163-6.247-18.123-10.184-23.873c-3.939-5.75-8.045-9.957-12.319-12.624
			c-4.274-2.664-8.508-4.289-12.697-4.875c-4.191-0.582-7.962-0.875-11.314-0.875h-14.582v170.953h27.51v3.93H51.097V294.184z"/>
	</g>
	<polygon class="st0" points="281,123.23 281,119.3 225.882,119.3 179.803,253.726 179.803,253.902 168.151,297.597 
		168.273,297.945 228.426,124.213 228.928,124.213 228.928,294.184 201.418,294.184 201.418,298.114 281,298.114 281,294.184 
		253.49,294.184 253.49,123.23 	"/>
	<path class="st0" d="M72.218,187.164c11.418,8.101,22.723,16.063,33.914,23.894c11.192,7.828,21.211,16.12,30.066,24.884
		c8.85,8.758,16.007,18.185,21.472,28.284c5.46,10.092,8.206,21.52,8.232,34.281l2.626,0.493
		c1.627-16.164,0.967-31.227-1.983-45.185c-2.953-13.961-7.664-27.372-14.131-40.242c-6.471-12.873-14.414-25.471-23.823-37.792
		c-9.413-12.327-19.674-24.913-30.777-37.749c-9.625-10.951-18.913-21.49-27.862-31.617S53.289,86.483,46.815,77.01
		c-6.475-9.482-11.211-18.583-14.211-27.311c-3.002-8.731-3.238-17.234-0.718-25.515c0.574-1.885,1.549-3.747,2.934-5.586
		c1.382-1.846,2.67-2.688,3.856-2.528c-0.083,1.617,0.623,3.014,2.117,4.191c1.495,1.173,2.991,1.99,4.5,2.449
		c2.443,0.744,4.84,0.65,7.18-0.283c2.339-0.936,3.885-2.624,4.629-5.07c0.859-2.822,0.631-5.467-0.676-7.919
		c-1.309-2.455-3.376-4.111-6.2-4.97c-3.012-0.916-5.645-1.052-7.898-0.399c-2.257,0.649-4.248,1.793-5.978,3.426
		c-1.733,1.631-3.139,3.566-4.238,5.807c-1.089,2.236-2.009,4.578-2.754,7.027c-2.922,9.601-3.156,18.987-0.705,28.168
		c2.451,9.179,6.643,18.374,12.582,27.585c5.938,9.211,13.202,18.618,21.799,28.229c8.592,9.605,17.477,19.612,26.652,30.015
		c9.176,10.4,18.307,21.099,27.407,32.097c9.096,10.992,17.242,22.417,24.431,34.275c7.19,11.853,13.115,24.145,17.778,36.877
		c4.658,12.727,7.17,25.938,7.532,39.622l-0.737,0.394c-2.562-14.562-7.197-27.387-13.897-38.475
		c-6.704-11.092-14.671-21.074-23.897-29.947c-9.229-8.879-19.323-16.939-30.28-24.177c-10.959-7.247-22.026-14.471-33.202-21.673
		c-11.177-7.211-22.077-14.638-32.705-22.295c-10.627-7.659-20.118-16.355-28.462-26.091l-3.426,1.116l47.741,52.935
		C55.862,175.225,63.942,181.29,72.218,187.164z"/>
</g>
</svg>
